<svg width="1200" height="630" viewBox="0 0 1200 630" xmlns="http://www.w3.org/2000/svg">
  <defs>
    <linearGradient id="bg8" x1="0%" y1="0%" x2="100%" y2="100%">
      <stop offset="0%" style="stop-color:#1a1a1a;stop-opacity:1" />
      <stop offset="50%" style="stop-color:#2a2a2a;stop-opacity:1" />
      <stop offset="100%" style="stop-color:#1a1a1a;stop-opacity:1" />
    </linearGradient>
    <linearGradient id="goldGradient8" x1="0%" y1="0%" x2="100%" y2="0%">
      <stop offset="0%" style="stop-color:#d4af37;stop-opacity:1" />
      <stop offset="100%" style="stop-color:#f4cf67;stop-opacity:1" />
    </linearGradient>
  </defs>

  <rect width="1200" height="630" fill="url(#bg8)"/>

  <!-- Ranking/rating pattern -->
  <g opacity="0.08">
    <rect x="100" y="100" width="1000" height="200" rx="20" fill="#d4af37"/>
    <rect x="150" y="350" width="900" height="150" rx="15" fill="#f4cf67"/>
    <polygon points="200,315 275,380 125,380" fill="#d4af37"/>
  </g>

  <!-- Trophy/award-inspired design -->
  <g transform="translate(600, 315)">
    <polygon points="0,-120 130,100 -130,100" fill="none" stroke="url(#goldGradient8)" stroke-width="2" opacity="0.3"/>
    <polygon points="0,-90 100,75 -100,75" fill="none" stroke="url(#goldGradient8)" stroke-width="1.5" opacity="0.4"/>
    <polygon points="0,-60 70,50 -70,50" fill="none" stroke="url(#goldGradient8)" stroke-width="1" opacity="0.5"/>

    <!-- Star accent -->
    <polygon points="0,-20 5,-8 18,-8 8,2 12,15 0,8 -12,15 -8,2 -18,-8 -5,-8" fill="url(#goldGradient8)" opacity="0.2"/>
  </g>

  <!-- Text -->
  <text x="600" y="160" text-anchor="middle" font-family="Georgia, serif" font-size="46" font-weight="bold" fill="url(#goldGradient8)">
    BEST MALE ENHANCEMENT
  </text>
  <text x="600" y="215" text-anchor="middle" font-family="Georgia, serif" font-size="38" fill="#e0e0e0" opacity="0.9">
    PILLS 2026
  </text>
  <text x="600" y="275" text-anchor="middle" font-family="Arial, sans-serif" font-size="19" fill="#a0a0a0">
    Top 5 Ranked • Clinical Research • Expert Reviews
  </text>

  <line x1="340" y1="320" x2="860" y2="320" stroke="url(#goldGradient8)" stroke-width="2" opacity="0.4"/>

  <text x="600" y="360" text-anchor="middle" font-family="Arial, sans-serif" font-size="14" fill="#808080">
    VigRX Plus #1 • Erectin • Semenax • Prosolution Plus • Volume Pills
  </text>
</svg>